<svg xmlns="http://www.w3.org/2000/svg" width="209" height="21" viewBox="0 0 209 21">
    <g fill="none" fill-rule="evenodd">
        <g fill="#333">
            <path d="M35.412 10.403v-.017c0-1.652 1.231-3.1 3.044-3.1 1.812 0 3.028 1.431 3.028 3.085v.015c0 1.655-1.233 3.101-3.046 3.101-1.81 0-3.026-1.428-3.026-3.084zm5.374 0v-.017c0-1.361-.986-2.475-2.348-2.475-1.36 0-2.329 1.097-2.329 2.46v.015c0 1.364.987 2.479 2.347 2.479 1.36 0 2.33-1.099 2.33-2.462zm11.037 2.981h.656V8.466l3.844 4.918h.536V7.385h-.657v4.807l-3.749-4.807h-.63v6zm11.553 0h.673v-2.61h3.224v-.618h-3.224V8.014h3.608v-.629h-4.281v6zm6.67 0h4.347v-.616h-3.677v-2.099h3.251v-.618h-3.251V8.003h3.636v-.618h-4.307v6zm23.782 0h.682v-2.382l2.473-3.617h-.782l-2.022 3-2.009-3h-.817l2.475 3.625v2.374zm-12.595 0L79.51 11.06h-1.704v2.325h-.672V7.385h2.56c.733 0 1.318.226 1.693.6.288.292.46.712.46 1.186v.015c0 .99-.678 1.572-1.607 1.744v.017l1.818 2.437h-.824zm-3.428-5.37v2.428h1.954c.827-.044 1.407-.496 1.407-1.23v-.017c0-.738-.563-1.181-1.524-1.181h-1.837zm11.055 5.37l-1.725-2.325h-1.704v2.325h-.673V7.385h2.56c.732 0 1.319.226 1.693.6.289.292.459.712.459 1.186v.015c0 .99-.675 1.572-1.605 1.744v.017l1.818 2.437h-.823zm-3.43-5.37v2.428h1.955c.826-.044 1.403-.496 1.403-1.23v-.017c0-.738-.56-1.181-1.521-1.181H85.43zM48.3 13.385l-1.724-2.326h-1.704v2.326h-.673V7.387h2.56c.732 0 1.319.225 1.693.6.29.29.46.71.46 1.185v.016c0 .99-.676 1.57-1.606 1.743v.017l1.819 2.437H48.3zm-3.428-5.37v2.428h1.955c.826-.044 1.404-.496 1.404-1.23v-.017c0-.738-.561-1.181-1.522-1.181h-1.837zm-16.02 5.37h.672V7.387h-.673v5.998zm2.408-3.377l2.55-2.62h-.867l-2.514 2.631 2.65 3.366h.842l-2.661-3.377zM10.71 18.474v.256H6.084L.032 9.984 6.826 2.09h1.98v.257H6.942L2.11 7.959l7.275 10.515h1.325zm3.436-16.385v.257h1.995c3.319 0 4.967 1.963 5.663 5.094h.186V2.09h-7.844zm0 8.061v.26c3.481 0 3.806 2.336 3.898 3.48h.186V6.74h-.186c-.21 2.29-1.207 3.41-3.898 3.41zm-2.165 10.505h.255V.165h-.255v20.49zM99.01 7.888c.107 0 .19-.048.19-.138v-.005c0-.078-.068-.13-.18-.13h-.234v.273h.224zm-.308-.353h.321a.3.3 0 0 1 .21.072c.032.032.055.08.055.135v.003c0 .117-.08.187-.196.208l.239.305h-.11l-.227-.291h-.208v.29h-.084v-.722zm.924.38v-.003a.646.646 0 0 0-.65-.656.65.65 0 0 0-.653.66v.004c0 .36.279.655.65.655a.65.65 0 0 0 .653-.66zm-1.362.005v-.005c0-.388.314-.714.712-.714.399 0 .708.322.708.711v.003c0 .39-.313.716-.712.716a.708.708 0 0 1-.708-.711z"/>
        </g>
        <g fill="#919191">
            <path d="M107.355 7.5h1v1.972h-1zM107.355 11.446h1v1.973h-1z"/>
        </g>
        <path fill="#333" d="M117.702 13.852V7.578h2.275c1.372 0 2.275.753 2.275 1.99v.017c0 1.354-1.094 2.053-2.388 2.053h-1.476v2.214h-.686zm.686-2.86h1.502c1.008 0 1.668-.555 1.668-1.38v-.018c0-.896-.652-1.362-1.633-1.362h-1.537v2.76zm6.694 2.86V7.578h2.614c.747 0 1.346.233 1.728.627.295.305.469.744.469 1.237v.018c0 1.04-.695 1.65-1.65 1.828l1.867 2.564h-.842l-1.763-2.438h-1.737v2.438h-.686zm.686-3.074h1.867c.912 0 1.563-.484 1.563-1.291v-.018c0-.77-.573-1.237-1.554-1.237h-1.876v2.546zm9.994 3.181c-1.85 0-3.092-1.496-3.092-3.226v-.018c0-1.73 1.26-3.245 3.11-3.245 1.849 0 3.09 1.497 3.09 3.227v.018c0 1.73-1.258 3.244-3.108 3.244zm.017-.654c1.39 0 2.38-1.147 2.38-2.572v-.018c0-1.425-1.008-2.59-2.397-2.59-1.39 0-2.38 1.147-2.38 2.572v.018c0 1.425 1.008 2.59 2.397 2.59zm6.121.547V7.578h2.11c1.91 0 3.23 1.353 3.23 3.119v.018c0 1.766-1.32 3.137-3.23 3.137h-2.11zm2.11-5.62h-1.424v4.966h1.424c1.537 0 2.519-1.076 2.519-2.465v-.018c0-1.39-.982-2.483-2.519-2.483zm8.692 5.718c-1.503 0-2.528-.95-2.528-2.724V7.578h.687v3.603c0 1.353.703 2.115 1.858 2.115 1.12 0 1.832-.699 1.832-2.07V7.578h.686v3.594c0 1.828-1.016 2.778-2.535 2.778zm8.517.01c-1.754 0-3.048-1.426-3.048-3.227v-.018c0-1.775 1.285-3.245 3.074-3.245 1.103 0 1.763.404 2.371.995l-.469.52c-.512-.502-1.085-.86-1.91-.86-1.346 0-2.354 1.129-2.354 2.572v.018c0 1.452 1.016 2.59 2.354 2.59.833 0 1.38-.332 1.962-.905l.452.457c-.634.663-1.329 1.102-2.432 1.102zm6.816-.108v-5.62h-2.041v-.654h4.776v.654h-2.04v5.62h-.695zm11.868.09c-.964 0-1.754-.332-2.484-1.004l.426-.52c.634.591 1.242.887 2.084.887.816 0 1.355-.448 1.355-1.066v-.018c0-.583-.304-.915-1.58-1.192-1.399-.314-2.042-.78-2.042-1.811V9.2c0-.986.843-1.712 1.998-1.712.886 0 1.52.26 2.136.771l-.4.547c-.564-.475-1.128-.681-1.754-.681-.79 0-1.294.448-1.294 1.012v.018c0 .592.313.923 1.65 1.22 1.355.304 1.98.815 1.98 1.774v.018c0 1.075-.868 1.774-2.075 1.774zm7.484.008c-1.502 0-2.527-.95-2.527-2.724V7.578h.686v3.603c0 1.353.703 2.115 1.858 2.115 1.12 0 1.833-.699 1.833-2.07V7.578h.686v3.594c0 1.828-1.016 2.778-2.536 2.778zm5.8-.098V7.578h.686v6.274h-.686zm5.651 0v-5.62h-2.04v-.654h4.776v.654h-2.04v5.62h-.696zm5.6 0V7.578h4.394v.645h-3.708v2.142h3.318v.646h-3.318v2.196h3.752v.645h-4.438z"/>
    </g>
</svg>
